<?xml version="1.0" encoding="UTF-8" standalone="no"?>
<!-- Created with Inkscape (http://www.inkscape.org/) -->

<svg
   width="214.84444mm"
   height="236.05244mm"
   viewBox="0 0 214.84444 236.05244"
   version="1.1"
   id="svg1"
   inkscape:version="1.3.2 (091e20e, 2023-11-25)"
   sodipodi:docname="end_position_button.svg"
   xmlns:inkscape="http://www.inkscape.org/namespaces/inkscape"
   xmlns:sodipodi="http://sodipodi.sourceforge.net/DTD/sodipodi-0.dtd"
   xmlns:xlink="http://www.w3.org/1999/xlink"
   xmlns="http://www.w3.org/2000/svg"
   xmlns:svg="http://www.w3.org/2000/svg">
  <sodipodi:namedview
     id="namedview1"
     pagecolor="#505050"
     bordercolor="#eeeeee"
     borderopacity="1"
     inkscape:showpageshadow="0"
     inkscape:pageopacity="0"
     inkscape:pagecheckerboard="0"
     inkscape:deskcolor="#505050"
     inkscape:document-units="mm"
     inkscape:zoom="0.43529921"
     inkscape:cx="93.039451"
     inkscape:cy="410.06277"
     inkscape:window-width="1512"
     inkscape:window-height="916"
     inkscape:window-x="0"
     inkscape:window-y="38"
     inkscape:window-maximized="0"
     inkscape:current-layer="layer1" />
  <defs
     id="defs1">
    <linearGradient
       id="linearGradient4"
       inkscape:collect="always">
      <stop
         style="stop-color:#af0000;stop-opacity:1;"
         offset="0"
         id="stop4" />
      <stop
         style="stop-color:#f85151;stop-opacity:1;"
         offset="1"
         id="stop5" />
    </linearGradient>
    <linearGradient
       inkscape:collect="always"
       xlink:href="#linearGradient4"
       id="linearGradient5"
       x1="-1.4998332"
       y1="116.52639"
       x2="213.3446"
       y2="116.52639"
       gradientUnits="userSpaceOnUse" />
  </defs>
  <g
     inkscape:label="Layer 1"
     inkscape:groupmode="layer"
     id="layer1"
     transform="translate(1.5,1.5)">
    <path
       id="rect1"
       style="fill:url(#linearGradient5);fill-opacity:1;stroke:#000000;stroke-width:3;stroke-dasharray:none;stroke-opacity:1"
       d="M 12.612317 0.00016682943 L 12.612317 186.24978 L 12.612317 222.36747 L 0.00016682943 222.36747 L 0.00016682943 233.05261 L 12.612317 233.05261 L 29.080046 233.05261 L 41.692196 233.05261 L 41.692196 222.36747 L 29.080046 222.36747 L 29.080046 186.24978 L 29.080046 122.30226 L 204.8104 122.30226 L 146.1158 63.607654 L 209.72328 0.00016682943 L 29.080046 0.00016682943 L 12.612317 0.00016682943 z " />
    <path
       id="path1"
       style="fill:#ff2a2a;fill-opacity:1;stroke:#000000;stroke-width:2.5;stroke-dasharray:none;stroke-opacity:1"
       d="m 127.95881,144.10074 c -16.45025,0 -29.785781,13.33553 -29.785781,29.78578 0,16.45025 29.785781,56.05347 29.785781,54.46558 0,0 29.78592,-38.01533 29.78592,-54.46558 0,-16.45025 -13.33567,-29.78578 -29.78592,-29.78578 z m 0,10.75274 a 20.312542,20.312542 0 0 1 20.31265,20.3125 20.312542,20.312542 0 0 1 -20.31265,20.3125 20.312542,20.312542 0 0 1 -20.31251,-20.3125 20.312542,20.312542 0 0 1 20.31251,-20.3125 z" />
  </g>
</svg>
