<?xml version="1.0" encoding="UTF-8" standalone="no"?>
<!-- Created with Inkscape (http://www.inkscape.org/) -->

<svg
   width="214.84444mm"
   height="236.05244mm"
   viewBox="0 0 214.84444 236.05244"
   version="1.1"
   id="svg1"
   inkscape:version="1.3.2 (091e20e, 2023-11-25)"
   sodipodi:docname="end_position_button.svg"
   xmlns:inkscape="http://www.inkscape.org/namespaces/inkscape"
   xmlns:sodipodi="http://sodipodi.sourceforge.net/DTD/sodipodi-0.dtd"
   xmlns="http://www.w3.org/2000/svg"
   xmlns:svg="http://www.w3.org/2000/svg">
  <sodipodi:namedview
     id="namedview1"
     pagecolor="#505050"
     bordercolor="#eeeeee"
     borderopacity="1"
     inkscape:showpageshadow="0"
     inkscape:pageopacity="0"
     inkscape:pagecheckerboard="0"
     inkscape:deskcolor="#505050"
     inkscape:document-units="mm"
     inkscape:zoom="0.19433125"
     inkscape:cx="1541.1829"
     inkscape:cy="1301.9007"
     inkscape:window-width="1512"
     inkscape:window-height="917"
     inkscape:window-x="0"
     inkscape:window-y="65"
     inkscape:window-maximized="0"
     inkscape:current-layer="layer1" />
  <defs
     id="defs1" />
  <g
     inkscape:label="Layer 1"
     inkscape:groupmode="layer"
     id="layer1"
     transform="translate(1.5,1.5)">
    <path
       id="rect1"
       style="fill:#ff2a2a;fill-opacity:1;stroke:#000000;stroke-width:3;stroke-dasharray:none;stroke-opacity:1"
       d="m 12.61215,0 v 186.24961 36.1177 H 0 v 10.68513 h 12.61215 16.467729 12.61215 V 222.36731 H 29.079879 V 186.24961 122.3021 H 204.81024 L 146.11563,63.607487 209.72312,0 H 29.079879 Z M 29.796631,15.99644 H 40.807328 161.59014 l -42.52971,47.611047 39.24464,43.933753 H 111.72806 40.807328 29.796631 Z" />
    <path
       id="path1"
       style="fill:#ff2a2a;fill-opacity:1;stroke:#000000;stroke-width:2.5;stroke-dasharray:none;stroke-opacity:1"
       d="m 127.95881,144.10074 c -16.45025,0 -29.785781,13.33553 -29.785781,29.78578 0,16.45025 29.785781,56.05347 29.785781,54.46558 0,0 29.78592,-38.01533 29.78592,-54.46558 0,-16.45025 -13.33567,-29.78578 -29.78592,-29.78578 z m 0,10.75274 a 20.312542,20.312542 0 0 1 20.31265,20.3125 20.312542,20.312542 0 0 1 -20.31265,20.3125 20.312542,20.312542 0 0 1 -20.31251,-20.3125 20.312542,20.312542 0 0 1 20.31251,-20.3125 z" />
  </g>
</svg>
