<?xml version="1.0" encoding="UTF-8" standalone="no"?>
<!-- Created with Inkscape (http://www.inkscape.org/) -->

<svg
   width="212.50061mm"
   height="299.49994mm"
   viewBox="0 0 212.50061 299.49994"
   version="1.1"
   id="svg1"
   inkscape:version="1.3.2 (091e20e, 2023-11-25)"
   sodipodi:docname="start_position_button.svg"
   xmlns:inkscape="http://www.inkscape.org/namespaces/inkscape"
   xmlns:sodipodi="http://sodipodi.sourceforge.net/DTD/sodipodi-0.dtd"
   xmlns="http://www.w3.org/2000/svg"
   xmlns:svg="http://www.w3.org/2000/svg">
  <sodipodi:namedview
     id="namedview1"
     pagecolor="#505050"
     bordercolor="#eeeeee"
     borderopacity="1"
     inkscape:showpageshadow="0"
     inkscape:pageopacity="0"
     inkscape:pagecheckerboard="0"
     inkscape:deskcolor="#505050"
     inkscape:document-units="mm"
     inkscape:zoom="0.19672884"
     inkscape:cx="881.9246"
     inkscape:cy="223.65811"
     inkscape:window-width="1512"
     inkscape:window-height="917"
     inkscape:window-x="0"
     inkscape:window-y="65"
     inkscape:window-maximized="0"
     inkscape:current-layer="layer1" />
  <defs
     id="defs1" />
  <g
     inkscape:label="Layer 1"
     inkscape:groupmode="layer"
     id="layer1"
     transform="translate(1.2505168,1.2499942)">
    <path
       id="path1"
       style="fill:#49964a;fill-opacity:1;stroke:#000000;stroke-width:2.49923;stroke-dasharray:none;stroke-opacity:1"
       d="M 104.99979,-3.7926593e-4 C 47.009738,-3.7926593e-4 -3.8441417e-4,46.980608 -3.8441417e-4,104.93472 c 0,57.95411 105.00017441417,197.47602 105.00017441417,191.88187 0,0 105.00069,-133.92776 105.00069,-191.88187 0,-57.954112 -47.01064,-104.93509926593 -105.00069,-104.93509926593 z m 0,37.88182626593 A 71.605326,71.560947 0 0 1 176.6055,109.44226 71.605326,71.560947 0 0 1 104.99979,181.00307 71.605326,71.560947 0 0 1 33.394598,109.44226 71.605326,71.560947 0 0 1 104.99979,37.881447 Z" />
    <path
       id="path2"
       style="fill:#49964a;fill-opacity:1;stroke:#000000;stroke-width:2.5;stroke-dasharray:none;stroke-opacity:1"
       d="m 144.69143,241.46485 c -2.66226,3.94151 -5.16521,7.5191 -7.71478,11.1926 a 78.391411,13.044127 0 0 1 46.41422,11.90521 78.391411,13.044127 0 0 1 -78.39108,13.04417 78.391411,13.044127 0 0 1 -78.391595,-13.04417 78.391411,13.044127 0 0 1 42.480611,-11.56157 c -2.493681,-3.63659 -4.94826,-7.17161 -7.538041,-11.07167 A 105,28.857258 0 0 0 -5.1676432e-4,268.14281 105,28.857258 0 0 0 104.99979,296.99996 105,28.857258 0 0 0 209.99958,268.14281 105,28.857258 0 0 0 144.69143,241.46485 Z" />
  </g>
</svg>
